PathFileType	4	(X/Y/Z)	 s05c0301.trc
DataRate	CameraRate	NumFrames	NumMarkers	Units	OrigDataRate	OrigDataStartFrame	OrigNumFrames
200	200	4	50	mm	200	1001	2000
Frame#	Time	racr			lacr			c7			jug			rlel			rdr			llel			ldr			s2			lic			ric			lasi			rasi			rpsi			lpsi			rgt			lgt			rth1			rth2			rth3			rth4			rlfc			rmfc			rsh1			rsh2			rsh3			rsh4			rlmal			rmmal			rcal			rtoe			rmt5			lth1			lth2			lth4			lth3			llfc			lmfc			lsh1			lsh2			lsh3			lsh4			llmal			lmmal			lcal			ltoe			lmt5			SBIKE			LBIKE			RBIKE			
		X1	Y1	Z1	X2	Y2	Z2	X3	Y3	Z3	X4	Y4	Z4	X5	Y5	Z5	X6	Y6	Z6	X7	Y7	Z7	X8	Y8	Z8	X9	Y9	Z9	X10	Y10	Z10	X11	Y11	Z11	X12	Y12	Z12	X13	Y13	Z13	X14	Y14	Z14	X15	Y15	Z15	X16	Y16	Z16	X17	Y17	Z17	X18	Y18	Z18	X19	Y19	Z19	X20	Y20	Z20	X21	Y21	Z21	X22	Y22	Z22	X23	Y23	Z23	X24	Y24	Z24	X25	Y25	Z25	X26	Y26	Z26	X27	Y27	Z27	X28	Y28	Z28	X29	Y29	Z29	X30	Y30	Z30	X31	Y31	Z31	X32	Y32	Z32	X33	Y33	Z33	X34	Y34	Z34	X35	Y35	Z35	X36	Y36	Z36	X37	Y37	Z37	X38	Y38	Z38	X39	Y39	Z39	X40	Y40	Z40	X41	Y41	Z41	X42	Y42	Z42	X43	Y43	Z43	X44	Y44	Z44	X45	Y45	Z45	X46	Y46	Z46	X47	Y47	Z47	X48	Y48	Z48	X49	Y49	Z49	X50	Y50	Z50	
1001	5.0050	775.117323	1275.133327	-174.503940	749.364097	1310.554088	-455.725241	752.645626	1367.519651	-319.562267	694.311995	1213.955845	-318.527580	593.754691	1122.470274	0.361966	698.219277	927.860084	-73.522855	537.276764	1106.942270	-558.654791	690.927778	923.800701	-464.716092	168.367519	1230.924409	-259.058793	299.948354	1245.206409	-409.377542	331.649725	1204.277334	-129.825284	338.968710	1179.311858	-383.743354	352.574876	1139.197632	-167.435792	216.403569	1264.293144	-211.569965	209.614916	1280.952109	-297.563629	236.380974	1079.900651	-119.181390	236.258212	1156.382882	-447.611846	255.781659	971.406972	-100.713015	284.681939	886.812277	-93.973853	266.697859	800.547453	-99.148547	321.133140	889.340353	-102.245997	292.023345	653.496935	-123.845708	274.372597	647.665232	-229.562635	232.152371	565.468474	-91.753955	227.346288	477.466017	-101.158336	183.214726	404.216357	-103.440974	257.327914	470.861207	-125.462990	152.135919	271.757617	-110.303561	170.870898	293.230965	-188.942639	78.778248	263.938725	-154.053836	347.910626	135.734471	-150.751643	245.503066	152.043359	-84.862895	342.599295	1064.519665	-468.924121	424.079746	1038.492483	-463.717636	443.490529	1064.937407	-443.216355	484.626966	970.890219	-466.822561	580.667326	861.035121	-438.406587	565.095180	846.428699	-327.477747	477.480606	805.765864	-460.307972	414.746002	746.184938	-449.458966	328.760774	724.289234	-450.707340	431.421280	718.874216	-428.499817	224.301582	651.190335	-444.817897	257.995311	653.559395	-367.794291	158.188402	681.345382	-406.971818	285.701519	416.804571	-379.278260	216.536547	493.215809	-454.068028	-213.992308	914.849591	-267.008141	-43.549173	85.391417	-475.004821	-51.761887	80.120777	-77.535746	
1002	5.0100	774.941983	1275.515292	-176.929413	748.418460	1310.292641	-457.772545	752.023753	1367.613371	-321.722475	693.172322	1214.474729	-320.627328	594.361739	1123.126090	-0.473246	698.568941	927.539312	-73.746544	536.239963	1106.130758	-559.217230	690.599452	923.829679	-465.232912	168.681209	1231.933097	-255.325248	298.103641	1247.248936	-406.894142	333.990569	1204.550640	-128.057894	337.858683	1181.359069	-382.114473	354.109635	1139.750194	-165.928040	217.329499	1265.102196	-207.979313	209.773261	1282.282854	-293.966800	237.913314	1080.781751	-117.106994	235.181863	1158.852393	-445.003450	255.147456	973.370097	-98.741070	282.331887	888.230911	-91.412485	262.843838	802.241150	-96.875861	319.259573	890.351291	-98.715732	285.416518	654.351463	-121.194731	269.082515	648.166118	-227.382574	225.496732	566.509432	-89.160909	220.754903	478.456484	-98.595743	176.264454	405.430854	-100.711674	250.628969	471.753830	-122.828174	145.311598	272.830280	-107.879303	163.531371	294.170695	-186.357234	71.574905	266.644117	-150.684051	337.438568	131.896784	-151.948488	236.390318	150.198643	-84.408456	342.134039	1068.152379	-466.171817	424.027355	1044.106774	-463.483416	443.444681	1070.353508	-441.288094	485.886139	976.946602	-465.161986	585.111630	869.272861	-436.786574	569.560685	854.049504	-326.889299	482.540990	812.468914	-459.777030	420.669501	751.858248	-448.976851	334.982903	728.775649	-450.099048	437.765448	724.712335	-428.245039	231.329738	653.405836	-443.985168	265.105033	656.198668	-367.242414	164.573071	682.204506	-406.007702	297.301715	420.080576	-379.141897	226.558026	495.506266	-453.763957	-214.050549	914.837482	-267.021053	-43.541907	85.393965	-475.008948	-51.792847	80.134423	-77.532651	
1003	5.0150	774.644667	1275.719552	-179.201914	747.551424	1310.040097	-459.753166	751.421607	1367.646918	-323.854833	692.097860	1215.107975	-322.703615	595.187217	1123.543394	-1.407744	698.812958	927.165445	-74.070692	535.154502	1105.488261	-559.670726	690.401609	923.948273	-465.229554	168.877053	1233.352219	-251.703278	297.025692	1249.813609	-405.295261	336.073657	1205.031168	-126.513080	336.675847	1183.757238	-380.414409	355.601058	1140.819065	-164.525270	218.180022	1266.284616	-204.575654	209.508061	1283.961175	-290.299450	239.324781	1082.031036	-115.083574	234.077151	1161.566627	-442.470304	254.924089	975.528555	-97.063200	280.492413	889.936623	-89.403357	259.647096	804.311886	-95.251715	317.505272	891.535269	-96.126549	280.431511	655.589863	-119.295133	264.686981	649.232213	-225.457539	220.202219	567.976918	-86.930533	214.950093	479.987663	-96.312183	170.106549	407.166394	-98.228288	244.732907	473.081883	-120.677959	138.741368	274.546609	-105.351483	156.543358	295.732918	-183.867611	64.490764	269.932799	-147.086937	326.871373	128.649085	-153.217989	227.350728	148.966952	-83.997908	341.729801	1072.390305	-463.746826	424.067283	1049.374576	-461.741013	442.960392	1076.127436	-439.767329	486.417868	983.043642	-464.037099	588.223194	877.286748	-436.570382	573.266198	861.721377	-326.049909	486.949514	818.429942	-459.154677	426.189038	756.806998	-448.301313	340.858155	732.331258	-449.330366	443.774773	729.789841	-427.686660	238.192506	654.903883	-443.073412	272.370513	657.923229	-366.265675	170.903338	682.163971	-404.978869	308.970889	422.834429	-379.341253	236.794656	497.036979	-453.727092	-214.089431	914.835213	-267.074791	-43.543154	85.281254	-474.930435	-51.781815	80.123373	-77.519417	
1004	5.0200	775.329987	1275.723601	-181.989167	746.664070	1309.839744	-461.614759	750.829033	1367.682483	-325.909085	689.526135	1215.870632	-323.582451	595.826062	1123.880887	-2.407435	698.942737	926.744076	-74.473356	534.128218	1104.898861	-560.021923	690.410573	924.395744	-465.219215	168.949407	1235.188253	-248.210848	295.255815	1252.334492	-402.859664	337.997931	1206.001534	-124.561469	335.361061	1186.301882	-378.863953	356.942721	1141.887270	-163.257360	218.807791	1268.099289	-201.167762	208.733775	1286.148739	-286.728798	240.700774	1083.509492	-113.195150	232.714061	1164.578205	-440.003498	254.972073	977.864968	-95.622279	279.266277	891.929435	-87.873130	257.292405	806.725447	-93.971530	316.062927	892.694839	-94.502175	276.099624	657.207719	-117.275541	261.312903	651.007387	-223.881420	216.057453	569.809361	-84.954560	210.054725	481.913222	-94.414237	164.846268	409.397176	-95.918535	239.777429	474.648754	-118.998869	132.270488	276.523487	-102.904893	149.745992	298.199250	-181.368264	57.710083	274.053357	-144.163091	316.318297	126.303841	-153.837513	217.899018	148.359996	-83.517328	341.033248	1076.687720	-461.154303	423.700036	1054.711827	-459.974955	442.394376	1081.516268	-437.845051	485.808717	989.097588	-463.531127	590.267007	885.101823	-436.703723	576.226365	869.294293	-325.256093	490.821137	823.684879	-458.338847	431.365348	760.830340	-447.290866	346.385360	734.837020	-448.504478	449.314320	734.073630	-426.876144	244.729233	655.521028	-442.098102	279.042527	658.854328	-365.679549	176.972220	681.325662	-403.861727	320.620328	425.020923	-379.752892	246.731788	497.853606	-453.506966	-214.122724	914.809210	-267.126883	-43.550797	85.374196	-474.994999	-51.800717	80.136639	-77.537753	
